<svg width="16" height="16" viewBox="0 0 16 16" fill="none" xmlns="http://www.w3.org/2000/svg">
<g clip-path="url(#clip0_17960_2459)">
<path d="M8.00033 13.5511L7.26449 12.8896C6.15938 11.8871 5.24549 11.0256 4.52283 10.3051C3.80016 9.58459 3.22749 8.94331 2.80483 8.38131C2.38216 7.81942 2.08688 7.30681 1.91899 6.84348C1.75099 6.38025 1.66699 5.9102 1.66699 5.43331C1.66699 4.4872 1.98599 3.69509 2.62399 3.05698C3.2621 2.41898 4.05421 2.09998 5.00033 2.09998C5.58233 2.09998 6.13233 2.23609 6.65033 2.50831C7.16833 2.78053 7.61833 3.17092 8.00033 3.67948C8.38233 3.17092 8.83233 2.78053 9.35033 2.50831C9.86833 2.23609 10.4183 2.09998 11.0003 2.09998C11.9464 2.09998 12.7385 2.41898 13.3767 3.05698C14.0147 3.69509 14.3337 4.4872 14.3337 5.43331C14.3337 5.9102 14.2497 6.38025 14.0817 6.84348C13.9138 7.30681 13.6185 7.81942 13.1958 8.38131C12.7732 8.94331 12.2015 9.58459 11.481 10.3051C10.7605 11.0256 9.8456 11.8871 8.73616 12.8896L8.00033 13.5511Z" fill="#876A3B"/>
</g>
<defs>
<clipPath id="clip0_17960_2459">
<rect width="16" height="16" fill="white"/>
</clipPath>
</defs>
</svg>
