<svg width="40" height="40" viewBox="0 0 40 40" fill="none" xmlns="http://www.w3.org/2000/svg">
<circle cx="20.0007" cy="20" r="11.6667" fill="white"/>
<path d="M13.9993 27.7563L19.9993 21.7563L25.9993 27.7563L27.7556 26L21.7556 20L27.7556 14L25.9993 12.2438L19.9993 18.2438L13.9993 12.2438L12.2431 14L18.2431 20L12.2431 26L13.9993 27.7563ZM20.0023 35.8334C17.8123 35.8334 15.7538 35.4178 13.8268 34.5867C11.8999 33.7556 10.2238 32.6277 8.79851 31.2029C7.37324 29.7782 6.24477 28.1028 5.4131 26.1767C4.58171 24.2506 4.16602 22.1927 4.16602 20.0029C4.16602 17.8129 4.58157 15.7545 5.41268 13.8275C6.24379 11.9006 7.37171 10.2245 8.79643 8.79919C10.2212 7.37391 11.8966 6.24544 13.8227 5.41377C15.7488 4.58238 17.8067 4.16669 19.9964 4.16669C22.1864 4.16669 24.2449 4.58224 26.1718 5.41335C28.0988 6.24446 29.7749 7.37238 31.2002 8.7971C32.6255 10.2218 33.7539 11.8972 34.5856 13.8234C35.417 15.7495 35.8327 17.8074 35.8327 19.9971C35.8327 22.1871 35.4171 24.2456 34.586 26.1725C33.7549 28.0995 32.627 29.7756 31.2023 31.2009C29.7775 32.6261 28.1021 33.7546 26.176 34.5863C24.2499 35.4177 22.192 35.8334 20.0023 35.8334Z" fill="#F95757"/>
</svg>
