<svg width="20" height="20" viewBox="0 0 20 20" fill="none" xmlns="http://www.w3.org/2000/svg">
<path d="M10.0014 9.88769C10.416 9.88769 10.7704 9.74005 11.0648 9.44477C11.3592 9.14949 11.5064 8.79456 11.5064 8.37998C11.5064 7.9654 11.3588 7.61088 11.0635 7.31644C10.7682 7.02213 10.4132 6.87498 9.9985 6.87498C9.58392 6.87498 9.22948 7.02262 8.93517 7.3179C8.64073 7.61317 8.4935 7.96817 8.4935 8.3829C8.4935 8.79748 8.64114 9.15192 8.93642 9.44623C9.2317 9.74054 9.5867 9.88769 10.0014 9.88769ZM9.99996 16.2612C11.6302 14.8018 12.8778 13.4019 13.7427 12.0616C14.6075 10.7214 15.04 9.54748 15.04 8.53998C15.04 7.02081 14.5573 5.77192 13.592 4.79331C12.6268 3.8147 11.4294 3.3254 9.99996 3.3254C8.57052 3.3254 7.37316 3.8147 6.40788 4.79331C5.4426 5.77192 4.95996 7.02081 4.95996 8.53998C4.95996 9.54748 5.39239 10.7214 6.25725 12.0616C7.12211 13.4019 8.36968 14.8018 9.99996 16.2612ZM9.99996 17.9246C7.90274 16.1073 6.3301 14.4162 5.28204 12.851C4.23399 11.2857 3.70996 9.84873 3.70996 8.53998C3.70996 6.61692 4.33197 5.06005 5.576 3.86935C6.82017 2.67866 8.29482 2.08331 9.99996 2.08331C11.7051 2.08331 13.1798 2.67866 14.4239 3.86935C15.6679 5.06005 16.29 6.61692 16.29 8.53998C16.29 9.84873 15.7659 11.2857 14.7179 12.851C13.6698 14.4162 12.0972 16.1073 9.99996 17.9246Z" fill="#667077"/>
</svg>
