<svg width="20" height="20" viewBox="0 0 20 20" fill="none" xmlns="http://www.w3.org/2000/svg">
<mask id="mask0_17376_10237" style="mask-type:alpha" maskUnits="userSpaceOnUse" x="0" y="0" width="20" height="20">
<rect width="20" height="20" fill="#D9D9D9"/>
</mask>
<g mask="url(#mask0_17376_10237)">
<path d="M6.08947 18.75C5.67391 18.75 5.31891 18.6028 5.02447 18.3085C4.73016 18.0141 4.58301 17.6591 4.58301 17.2435V2.75646C4.58301 2.33549 4.72884 1.97917 5.02051 1.6875C5.31217 1.39583 5.66849 1.25 6.08947 1.25H13.942C14.3575 1.25 14.7125 1.39715 15.0068 1.69146C15.3012 1.9859 15.4484 2.3409 15.4484 2.75646V5.38792C15.677 5.44764 15.8677 5.56701 16.0205 5.74604C16.1733 5.92493 16.2497 6.13299 16.2497 6.37021V7.94063C16.2497 8.17785 16.1733 8.38597 16.0205 8.565C15.8677 8.74389 15.677 8.86326 15.4484 8.92313V17.2435C15.4484 17.6591 15.3012 18.0141 15.0068 18.3085C14.7125 18.6028 14.3575 18.75 13.942 18.75H6.08947ZM6.08947 17.5H13.942C14.0167 17.5 14.0781 17.476 14.1263 17.4279C14.1744 17.3799 14.1984 17.3184 14.1984 17.2435V2.75646C14.1984 2.6816 14.1744 2.62014 14.1263 2.57208C14.0781 2.52403 14.0167 2.5 13.942 2.5H6.08947C6.01461 2.5 5.95315 2.52403 5.90509 2.57208C5.85704 2.62014 5.83301 2.6816 5.83301 2.75646V17.2435C5.83301 17.3184 5.85704 17.3799 5.90509 17.4279C5.95315 17.476 6.01461 17.5 6.08947 17.5ZM10.0157 5.12813C10.2252 5.12813 10.4004 5.05764 10.5413 4.91667C10.6823 4.77569 10.7528 4.60049 10.7528 4.39104C10.7528 4.1816 10.6823 4.00639 10.5413 3.86542C10.4004 3.72444 10.2252 3.65396 10.0157 3.65396C9.80627 3.65396 9.63106 3.72444 9.49009 3.86542C9.34912 4.00639 9.27863 4.1816 9.27863 4.39104C9.27863 4.60049 9.34912 4.77569 9.49009 4.91667C9.63106 5.05764 9.80627 5.12813 10.0157 5.12813Z" fill="#667077"/>
</g>
</svg>
