<svg width="24" height="24" viewBox="0 0 24 24" fill="none" xmlns="http://www.w3.org/2000/svg">
<path d="M4.69156 8.27843H6.47968C6.78152 9.38104 7.77683 10.173 8.94025 10.173C10.1018 10.173 11.0971 9.36378 11.4008 8.27843H19.3098C19.6976 8.27843 19.9995 7.95052 19.9995 7.57084C19.9995 7.19307 19.6785 6.86517 19.3098 6.86517H11.4008C11.0971 5.76255 10.1018 4.97059 8.94025 4.97059C7.77683 4.97059 6.78152 5.77981 6.47777 6.86708H4.69156C4.30375 6.86517 4 7.19307 4 7.57084C4 7.95052 4.31903 8.27843 4.69156 8.27843ZM8.94025 6.36659C9.58023 6.36659 10.1018 6.9016 10.1018 7.5555C10.1018 8.2094 9.58023 8.7444 8.94025 8.7444C8.30028 8.7444 7.77683 8.2094 7.77683 7.5555C7.77683 6.9016 8.29837 6.36659 8.94025 6.36659ZM19.3232 11.7934H17.537C17.2351 10.6908 16.2379 9.89687 15.0783 9.89687C13.9149 9.89687 12.9177 10.708 12.6158 11.7934H4.69156C4.30375 11.7934 4 12.1213 4 12.501C4 12.8787 4.31903 13.2066 4.69156 13.2066H12.5967C12.9024 14.3092 13.8996 15.1012 15.0592 15.1012C16.2226 15.1012 17.216 14.292 17.5217 13.2047H19.3098C19.6976 13.2047 19.9995 12.8787 19.9995 12.499C19.9995 12.1213 19.6976 11.7934 19.3232 11.7934ZM15.0783 13.6879C14.4364 13.6879 13.9149 13.1549 13.9149 12.501C13.9149 11.8451 14.4364 11.3121 15.0783 11.3121C15.7164 11.3121 16.2379 11.8451 16.2379 12.501C16.2379 13.1549 15.7164 13.6879 15.0783 13.6879ZM19.3232 16.7216H11.4008C11.0971 15.619 10.1018 14.827 8.94025 14.827C7.77683 14.827 6.78152 15.6362 6.47777 16.7216H4.69156C4.30375 16.7216 4 17.0495 4 17.4272C4 17.8242 4.31903 18.1348 4.69156 18.1348H6.47968C6.78152 19.2355 7.77683 20.0294 8.94025 20.0294C10.1018 20.0294 11.0971 19.2202 11.4008 18.1368H19.3098C19.6976 18.1368 19.9995 17.8069 19.9995 17.4292C20.0148 17.0495 19.6976 16.7216 19.3232 16.7216ZM8.94025 18.6334C8.30028 18.6334 7.77683 18.1003 7.77683 17.4445C7.77683 16.7887 8.29837 16.2575 8.94025 16.2575C9.58023 16.2575 10.1018 16.7887 10.1018 17.4445C10.1018 18.1003 9.58023 18.6334 8.94025 18.6334Z" fill="#BA9252"/>
</svg>
