<svg width="20" height="20" viewBox="0 0 20 20" fill="none" xmlns="http://www.w3.org/2000/svg">
<path d="M4.42345 17.9167C4.00248 17.9167 3.64616 17.7708 3.35449 17.4792C3.06283 17.1875 2.91699 16.8312 2.91699 16.4102V5.25646C2.91699 4.83548 3.06283 4.47916 3.35449 4.1875C3.64616 3.89583 4.00248 3.75 4.42345 3.75H5.5772V1.98729H6.85928V3.75H13.1735V1.98729H14.4235V3.75H15.5772C15.9982 3.75 16.3545 3.89583 16.6462 4.1875C16.9378 4.47916 17.0837 4.83548 17.0837 5.25646V16.4102C17.0837 16.8312 16.9378 17.1875 16.6462 17.4792C16.3545 17.7708 15.9982 17.9167 15.5772 17.9167H4.42345ZM4.42345 16.6667H15.5772C15.6414 16.6667 15.7001 16.6399 15.7535 16.5865C15.8069 16.5331 15.8337 16.4744 15.8337 16.4102V8.58979H4.16699V16.4102C4.16699 16.4744 4.19373 16.5331 4.2472 16.5865C4.30053 16.6399 4.35928 16.6667 4.42345 16.6667ZM4.16699 7.33979H15.8337V5.25646C15.8337 5.19229 15.8069 5.13354 15.7535 5.08021C15.7001 5.02673 15.6414 5 15.5772 5H4.42345C4.35928 5 4.30053 5.02673 4.2472 5.08021C4.19373 5.13354 4.16699 5.19229 4.16699 5.25646V7.33979Z" fill="#F5F7F8"/>
</svg>
