<svg width="20" height="21" viewBox="0 0 20 21" fill="none" xmlns="http://www.w3.org/2000/svg">
<path d="M9.37467 14.4583H10.6247V9.66668H9.37467V14.4583ZM9.99967 8.24043C10.1904 8.24043 10.3502 8.17591 10.4793 8.04689C10.6083 7.91786 10.6728 7.758 10.6728 7.5673C10.6728 7.37661 10.6083 7.21675 10.4793 7.08772C10.3502 6.95883 10.1904 6.89438 9.99967 6.89438C9.80898 6.89438 9.64912 6.95883 9.52009 7.08772C9.39106 7.21675 9.32655 7.37661 9.32655 7.5673C9.32655 7.758 9.39106 7.91786 9.52009 8.04689C9.64912 8.17591 9.80898 8.24043 9.99967 8.24043ZM10.0011 18.4167C8.90613 18.4167 7.8769 18.2089 6.91342 17.7933C5.94995 17.3778 5.1119 16.8138 4.39926 16.1015C3.68662 15.3891 3.12238 14.5514 2.70655 13.5883C2.29085 12.6253 2.08301 11.5963 2.08301 10.5015C2.08301 9.40647 2.29079 8.37723 2.70634 7.41376C3.1219 6.45029 3.68586 5.61223 4.39822 4.89959C5.11058 4.18695 5.94829 3.62272 6.91134 3.20688C7.8744 2.79119 8.90335 2.58334 9.99822 2.58334C11.0932 2.58334 12.1225 2.79112 13.0859 3.20668C14.0494 3.62223 14.8875 4.18619 15.6001 4.89855C16.3127 5.61091 16.877 6.44862 17.2928 7.41168C17.7085 8.37473 17.9163 9.40369 17.9163 10.4986C17.9163 11.5936 17.7086 12.6228 17.293 13.5863C16.8775 14.5497 16.3135 15.3878 15.6011 16.1004C14.8888 16.8131 14.0511 17.3773 13.088 17.7931C12.125 18.2088 11.096 18.4167 10.0011 18.4167ZM9.99967 17.1667C11.8608 17.1667 13.4372 16.5208 14.7288 15.2292C16.0205 13.9375 16.6663 12.3611 16.6663 10.5C16.6663 8.6389 16.0205 7.06251 14.7288 5.77084C13.4372 4.47918 11.8608 3.83334 9.99967 3.83334C8.13856 3.83334 6.56217 4.47918 5.27051 5.77084C3.97884 7.06251 3.33301 8.6389 3.33301 10.5C3.33301 12.3611 3.97884 13.9375 5.27051 15.2292C6.56217 16.5208 8.13856 17.1667 9.99967 17.1667Z" fill="#BA9252"/>
</svg>
