<svg width="50" height="50" viewBox="0 0 50 50" fill="none" xmlns="http://www.w3.org/2000/svg">
<path d="M19.9283 32.2917L25.0002 28.4375L29.9679 32.2516L28.0611 26.0896L33.2132 22.0672H27.0111L25.0002 15.8656L22.9892 22.0672H16.7871L21.8351 26.0896L19.9283 32.2917ZM8.97464 40.625C7.93575 40.625 7.04825 40.2571 6.31214 39.5214C5.57638 38.7852 5.2085 37.8977 5.2085 36.8589V31.15C5.2085 30.808 5.30676 30.5049 5.50329 30.2406C5.69947 29.976 5.96179 29.7957 6.29027 29.6995C7.20381 29.2748 7.94634 28.6444 8.51787 27.8083C9.0894 26.9726 9.37516 26.0365 9.37516 25C9.37516 23.9635 9.0894 23.0274 8.51787 22.1917C7.94634 21.3556 7.20381 20.7252 6.29027 20.3005C5.96179 20.2043 5.69947 20.024 5.50329 19.7594C5.30676 19.4951 5.2085 19.192 5.2085 18.85V13.1411C5.2085 12.1023 5.57638 11.2148 6.31214 10.4786C7.04825 9.74288 7.93575 9.375 8.97464 9.375H41.0257C42.0646 9.375 42.9521 9.74288 43.6882 10.4786C44.424 11.2148 44.7918 12.1023 44.7918 13.1411V18.85C44.7918 19.192 44.6936 19.4951 44.497 19.7594C44.3009 20.024 44.0385 20.2043 43.7101 20.3005C42.7965 20.7252 42.054 21.3556 41.4825 22.1917C40.9109 23.0274 40.6252 23.9635 40.6252 25C40.6252 26.0365 40.9109 26.9726 41.4825 27.8083C42.054 28.6444 42.7965 29.2748 43.7101 29.6995C44.0385 29.7957 44.3009 29.976 44.497 30.2406C44.6936 30.5049 44.7918 30.808 44.7918 31.15V36.8589C44.7918 37.8977 44.424 38.7852 43.6882 39.5214C42.9521 40.2571 42.0646 40.625 41.0257 40.625H8.97464ZM8.97464 37.5H41.0257C41.2128 37.5 41.3665 37.4399 41.4866 37.3198C41.6068 37.1997 41.6668 37.046 41.6668 36.8589V32.1875C40.3821 31.4236 39.3665 30.408 38.62 29.1406C37.8734 27.8733 37.5002 26.4931 37.5002 25C37.5002 23.5069 37.8734 22.1267 38.62 20.8594C39.3665 19.592 40.3821 18.5764 41.6668 17.8125V13.1411C41.6668 12.954 41.6068 12.8003 41.4866 12.6802C41.3665 12.5601 41.2128 12.5 41.0257 12.5H8.97464C8.78749 12.5 8.63384 12.5601 8.51371 12.6802C8.39357 12.8003 8.3335 12.954 8.3335 13.1411V17.8125C9.61822 18.5764 10.6338 19.592 11.3804 20.8594C12.1269 22.1267 12.5002 23.5069 12.5002 25C12.5002 26.4931 12.1269 27.8733 11.3804 29.1406C10.6338 30.408 9.61822 31.4236 8.3335 32.1875V36.8589C8.3335 37.046 8.39357 37.1997 8.51371 37.3198C8.63384 37.4399 8.78749 37.5 8.97464 37.5Z" fill="#667077"/>
</svg>
