<svg width="24" height="24" viewBox="0 0 24 24" fill="none" xmlns="http://www.w3.org/2000/svg">
<path d="M15.598 18.5C15.0696 18.5 14.6211 18.3209 14.2522 17.9627C13.8835 17.6045 13.6992 17.1696 13.6992 16.6579C13.6992 16.5895 13.7236 16.4233 13.7724 16.1591L8.75253 13.2947C8.58241 13.4657 8.38029 13.5997 8.14618 13.6967C7.91206 13.7936 7.66124 13.8421 7.39371 13.8421C6.86771 13.8421 6.42059 13.6622 6.05235 13.3026C5.68412 12.9429 5.5 12.5087 5.5 12C5.5 11.4913 5.68412 11.0571 6.05235 10.6974C6.42059 10.3378 6.86771 10.1579 7.39371 10.1579C7.66124 10.1579 7.91206 10.2064 8.14618 10.3033C8.38029 10.4003 8.58241 10.5342 8.75253 10.7053L13.7724 7.84735C13.7444 7.7632 13.7252 7.68075 13.7147 7.60001C13.7044 7.51928 13.6992 7.43329 13.6992 7.34207C13.6992 6.83039 13.8841 6.39546 14.2538 6.03728C14.6237 5.67909 15.0728 5.5 15.6012 5.5C16.1295 5.5 16.5781 5.67926 16.9468 6.03779C17.3156 6.3962 17.5 6.83147 17.5 7.34361C17.5 7.85574 17.3152 8.29055 16.9457 8.64805C16.5762 9.00544 16.1275 9.18413 15.5996 9.18413C15.3308 9.18413 15.0808 9.13458 14.8496 9.03549C14.6183 8.93639 14.4176 8.80132 14.2475 8.63026L9.22759 11.4947C9.25559 11.579 9.27482 11.6614 9.28529 11.7421C9.29565 11.8228 9.30082 11.9088 9.30082 12C9.30082 12.0912 9.29565 12.1772 9.28529 12.2579C9.27482 12.3386 9.25559 12.421 9.22759 12.5053L14.2475 15.3697C14.4176 15.1987 14.6183 15.0636 14.8496 14.9645C15.0808 14.8654 15.3308 14.8159 15.5996 14.8159C16.1275 14.8159 16.5762 14.9951 16.9457 15.3535C17.3152 15.712 17.5 16.1473 17.5 16.6595C17.5 17.1716 17.3151 17.6064 16.9452 17.9637C16.5754 18.3212 16.1264 18.5 15.598 18.5Z" fill="white"/>
</svg>
