<svg width="20" height="20" viewBox="0 0 20 20" fill="none" xmlns="http://www.w3.org/2000/svg">
<path opacity="0.2" d="M2.5 8.13333L2.93333 10.7333L4.66667 14.2L7.7 15.5L12.4667 14.6333L15.0667 12.4667L15.5 6.83333L12.4667 3.8L9.86667 2.5H7.26667L5.53333 3.8L3.8 5.53333L2.5 8.13333Z" fill="#876A3B"/>
<path d="M17.3886 16.8517L14.27 13.733C15.8444 11.9702 16.3808 9.5121 15.6835 7.25348C14.9869 4.99554 13.1585 3.26686 10.8644 2.69826C8.57051 2.12969 6.14583 2.80331 4.47481 4.47483C2.80323 6.14575 2.12963 8.57036 2.69824 10.8644C3.26681 13.1584 4.99551 14.9869 7.25346 15.6835C9.51207 16.3808 11.97 15.8444 13.733 14.27L16.8517 17.3887C17 17.537 17.2403 17.537 17.3887 17.3887C17.5371 17.2403 17.537 17.0001 17.3886 16.8517ZM3.32143 9.2699C3.32143 7.6909 3.9491 6.17628 5.0659 5.06008C6.18269 3.94395 7.69664 3.31695 9.27572 3.31695C10.8547 3.31761 12.3693 3.94527 13.4855 5.06209C14.6017 6.17954 15.228 7.69418 15.2273 9.27326C15.226 10.8523 14.5984 12.3662 13.4808 13.4817C12.3634 14.5979 10.8488 15.2235 9.26967 15.2228C7.69133 15.2215 6.17857 14.5939 5.06321 13.477C3.94839 12.3609 3.32143 10.8475 3.32143 9.2699Z" fill="#876A3B" stroke="#876A3B" stroke-width="0.6"/>
</svg>
