<svg width="40" height="40" viewBox="0 0 40 40" fill="none" xmlns="http://www.w3.org/2000/svg">
<circle cx="20.0007" cy="20" r="11.6667" fill="white"/>
<path d="M11.6639 22.0834C12.2423 22.0834 12.7343 21.881 13.1402 21.4763C13.5463 21.0715 13.7493 20.5802 13.7493 20.0021C13.7493 19.4238 13.547 18.9317 13.1423 18.5259C12.7375 18.1197 12.2462 17.9167 11.6681 17.9167C11.0898 17.9167 10.5977 18.119 10.1918 18.5238C9.78574 18.9285 9.58268 19.4199 9.58268 19.9979C9.58268 20.5763 9.78504 21.0684 10.1898 21.4742C10.5945 21.8803 11.0859 22.0834 11.6639 22.0834ZM19.9973 22.0834C20.5756 22.0834 21.0677 21.881 21.4735 21.4763C21.8796 21.0715 22.0827 20.5802 22.0827 20.0021C22.0827 19.4238 21.8803 18.9317 21.4756 18.5259C21.0709 18.1197 20.5795 17.9167 20.0014 17.9167C19.4231 17.9167 18.931 18.119 18.5252 18.5238C18.1191 18.9285 17.916 19.4199 17.916 19.9979C17.916 20.5763 18.1184 21.0684 18.5231 21.4742C18.9278 21.8803 19.4192 22.0834 19.9973 22.0834ZM28.3306 22.0834C28.9089 22.0834 29.401 21.881 29.8068 21.4763C30.213 21.0715 30.416 20.5802 30.416 20.0021C30.416 19.4238 30.2137 18.9317 29.8089 18.5259C29.4042 18.1197 28.9128 17.9167 28.3348 17.9167C27.7564 17.9167 27.2643 18.119 26.8585 18.5238C26.4524 18.9285 26.2493 19.4199 26.2493 19.9979C26.2493 20.5763 26.4517 21.0684 26.8564 21.4742C27.2612 21.8803 27.7525 22.0834 28.3306 22.0834ZM20.0023 35.8334C17.8123 35.8334 15.7538 35.4178 13.8268 34.5867C11.8999 33.7556 10.2238 32.6277 8.79851 31.2029C7.37324 29.7782 6.24477 28.1028 5.4131 26.1767C4.58171 24.2506 4.16602 22.1927 4.16602 20.0029C4.16602 17.8129 4.58157 15.7545 5.41268 13.8275C6.24379 11.9006 7.37171 10.2245 8.79643 8.79919C10.2212 7.37391 11.8966 6.24544 13.8227 5.41377C15.7488 4.58238 17.8067 4.16669 19.9964 4.16669C22.1864 4.16669 24.2449 4.58224 26.1718 5.41335C28.0988 6.24446 29.7749 7.37238 31.2002 8.7971C32.6255 10.2218 33.7539 11.8972 34.5856 13.8234C35.417 15.7495 35.8327 17.8074 35.8327 19.9971C35.8327 22.1871 35.4171 24.2456 34.586 26.1725C33.7549 28.0995 32.627 29.7756 31.2023 31.2009C29.7775 32.6261 28.1021 33.7546 26.176 34.5863C24.2499 35.4177 22.192 35.8334 20.0023 35.8334Z" fill="#E4B700"/>
</svg>
