<svg width="25" height="24" viewBox="0 0 25 24" fill="none" xmlns="http://www.w3.org/2000/svg">
<path d="M9.0155 20.5C7.61417 20.5 6.42792 20.0144 5.45675 19.0433C4.48558 18.0721 4 16.8858 4 15.4845C4 14.8962 4.10033 14.3244 4.301 13.7692C4.50167 13.2141 4.78917 12.7109 5.1635 12.2598L8.69425 8.0135L6.44225 3.5H18.5577L16.3057 8.0135L19.8365 12.2598C20.2108 12.7109 20.4983 13.2141 20.699 13.7692C20.8997 14.3244 21 14.8962 21 15.4845C21 16.8858 20.5118 18.0721 19.5355 19.0433C18.5593 20.0144 17.3757 20.5 15.9845 20.5H9.0155ZM12.5 15.7402C12.0013 15.7402 11.5754 15.5637 11.2223 15.2105C10.8689 14.8573 10.6923 14.4314 10.6923 13.9327C10.6923 13.4339 10.8689 13.0079 11.2223 12.6547C11.5754 12.3016 12.0013 12.125 12.5 12.125C12.9987 12.125 13.4246 12.3016 13.7778 12.6547C14.1311 13.0079 14.3077 13.4339 14.3077 13.9327C14.3077 14.4314 14.1311 14.8573 13.7778 15.2105C13.4246 15.5637 12.9987 15.7402 12.5 15.7402ZM10.0673 7.375H14.9423L16.125 5H8.875L10.0673 7.375ZM9.0155 19H15.9845C16.9667 19 17.7981 18.658 18.4788 17.974C19.1596 17.29 19.5 16.4602 19.5 15.4845C19.5 15.0717 19.4292 14.6714 19.2875 14.2838C19.1458 13.8959 18.9436 13.5456 18.6807 13.2327L15.0538 8.875H9.97125L6.32875 13.2172C6.06592 13.5301 5.86208 13.883 5.71725 14.276C5.57242 14.6688 5.5 15.0717 5.5 15.4845C5.5 16.4602 5.842 17.29 6.526 17.974C7.21 18.658 8.03983 19 9.0155 19Z" fill="white"/>
</svg>
