<svg width="124" height="123" viewBox="0 0 124 123" fill="none" xmlns="http://www.w3.org/2000/svg">
<path d="M62 123C95.9655 123 123.5 95.4655 123.5 61.5C123.5 27.5345 95.9655 0 62 0C28.0345 0 0.5 27.5345 0.5 61.5C0.5 95.4655 28.0345 123 62 123Z" fill="#F5F7F8"/>
<path d="M26.0523 89.4785L33.8837 97.3095L10.145 121.048C7.98253 123.211 4.47641 123.211 2.31397 121.048C0.151203 118.885 0.151203 115.379 2.31397 113.217L26.0523 89.4785Z" fill="#BA9252"/>
<path d="M24.3621 91.7754L4.51123 111.626" stroke="#876A3B" stroke-width="1.328" stroke-linecap="round"/>
<path d="M34.374 78.7109L44.6525 88.9894L33.3905 100.251C32.1194 101.522 30.0592 101.522 28.7881 100.251L23.112 94.575C21.8409 93.3042 21.8409 91.2437 23.112 89.9729L34.374 78.7109Z" fill="#BA9252"/>
<path d="M60.436 100.744C82.2264 100.744 99.891 83.0794 99.891 61.289C99.891 39.4986 82.2264 21.834 60.436 21.834C38.6456 21.834 20.981 39.4986 20.981 61.289C20.981 83.0794 38.6456 100.744 60.436 100.744Z" fill="#BA9252"/>
<path d="M60.2919 91.8347C77.1125 91.8347 90.7483 78.1989 90.7483 61.3783C90.7483 44.5577 77.1125 30.9219 60.2919 30.9219C43.4712 30.9219 29.8354 44.5577 29.8354 61.3783C29.8354 78.1989 43.4712 91.8347 60.2919 91.8347Z" fill="#D8DEE1"/>
<path d="M78.355 81.1141C89.3032 70.1659 89.3032 52.415 78.355 41.4668" stroke="#876A3B" stroke-width="1.328" stroke-linecap="round"/>
<path fill-rule="evenodd" clip-rule="evenodd" d="M57.5554 42.9648C55.6998 42.9648 54.2198 44.5142 54.3048 46.3678L55.3621 69.4729C55.4418 71.2106 56.8737 72.5784 58.613 72.5784H60.0758C61.8152 72.5784 63.2471 71.2106 63.3265 69.4729L64.3841 46.3678C64.4687 44.5142 62.9887 42.9648 61.1331 42.9648H57.5554ZM59.1816 81.6903C61.3385 81.6903 63.0866 79.9421 63.0866 77.7852C63.0866 75.6286 61.3385 73.8801 59.1816 73.8801C57.025 73.8801 55.2765 75.6286 55.2765 77.7852C55.2765 79.9421 57.025 81.6903 59.1816 81.6903Z" fill="#876A3B"/>
</svg>
