<svg width="40" height="40" viewBox="0 0 40 40" fill="none" xmlns="http://www.w3.org/2000/svg">
<circle cx="20" cy="19.1667" r="12.5" fill="white"/>
<path d="M17.6663 27.6667L29.4163 15.9167L27.083 13.5833L17.6663 23L12.9163 18.25L10.583 20.5833L17.6663 27.6667ZM19.9997 36.6667C17.6941 36.6667 15.5275 36.2292 13.4997 35.3542C11.4719 34.4792 9.70801 33.2917 8.20801 31.7917C6.70801 30.2917 5.52051 28.5278 4.64551 26.5C3.77051 24.4722 3.33301 22.3056 3.33301 20C3.33301 17.6944 3.77051 15.5278 4.64551 13.5C5.52051 11.4722 6.70801 9.70833 8.20801 8.20833C9.70801 6.70833 11.4719 5.52083 13.4997 4.64583C15.5275 3.77083 17.6941 3.33333 19.9997 3.33333C22.3052 3.33333 24.4719 3.77083 26.4997 4.64583C28.5275 5.52083 30.2913 6.70833 31.7913 8.20833C33.2913 9.70833 34.4788 11.4722 35.3538 13.5C36.2288 15.5278 36.6663 17.6944 36.6663 20C36.6663 22.3056 36.2288 24.4722 35.3538 26.5C34.4788 28.5278 33.2913 30.2917 31.7913 31.7917C30.2913 33.2917 28.5275 34.4792 26.4997 35.3542C24.4719 36.2292 22.3052 36.6667 19.9997 36.6667Z" fill="#32B817"/>
</svg>
