<svg width="20" height="20" viewBox="0 0 20 20" fill="none" xmlns="http://www.w3.org/2000/svg">
<path d="M12.8938 13.7725L13.7722 12.8942L10.6247 9.74666V5.83333H9.37467V10.2531L12.8938 13.7725ZM10.0011 17.9167C8.90613 17.9167 7.8769 17.7089 6.91342 17.2933C5.94995 16.8778 5.1119 16.3138 4.39926 15.6015C3.68662 14.8891 3.12238 14.0514 2.70655 13.0883C2.29085 12.1253 2.08301 11.0963 2.08301 10.0015C2.08301 8.90645 2.29079 7.87722 2.70634 6.91374C3.1219 5.95027 3.68586 5.11222 4.39822 4.39958C5.11058 3.68694 5.94829 3.1227 6.91134 2.70687C7.8744 2.29118 8.90335 2.08333 9.99822 2.08333C11.0932 2.08333 12.1225 2.29111 13.0859 2.70666C14.0494 3.12222 14.8875 3.68618 15.6001 4.39854C16.3127 5.1109 16.877 5.94861 17.2928 6.91166C17.7085 7.87472 17.9163 8.90368 17.9163 9.99854C17.9163 11.0935 17.7086 12.1228 17.293 13.0862C16.8775 14.0497 16.3135 14.8878 15.6011 15.6004C14.8888 16.313 14.0511 16.8773 13.088 17.2931C12.125 17.7088 11.096 17.9167 10.0011 17.9167ZM9.99967 16.6667C11.8469 16.6667 13.4198 16.0174 14.7184 14.7187C16.017 13.4201 16.6663 11.8472 16.6663 9.99999C16.6663 8.15277 16.017 6.57986 14.7184 5.28124C13.4198 3.98263 11.8469 3.33333 9.99967 3.33333C8.15245 3.33333 6.57954 3.98263 5.28092 5.28124C3.98231 6.57986 3.33301 8.15277 3.33301 9.99999C3.33301 11.8472 3.98231 13.4201 5.28092 14.7187C6.57954 16.0174 8.15245 16.6667 9.99967 16.6667Z" fill="#667077"/>
</svg>
