<svg width="65" height="20" viewBox="0 0 65 20" fill="none" xmlns="http://www.w3.org/2000/svg">
<path d="M31.9594 18.9611L32.6881 14.6205L33.418 14.9542C34.9487 15.6576 36.6207 15.9997 38.3048 15.954C39.8046 15.954 41.4043 15.3603 41.4043 14.0618C41.4043 13.2082 40.7119 12.6145 38.706 11.6509C36.7363 10.7235 34.1116 9.16498 34.1479 6.38288C34.1479 2.63341 37.7574 0.00128962 42.8966 0.00128962C44.4674 -0.0214208 46.028 0.256008 47.4947 0.818673L46.8023 5.01057L46.3324 4.78811C45.1132 4.25255 43.7887 3.9992 42.4579 4.04696C40.4582 4.04696 39.5046 4.90059 39.5046 5.71672C39.5046 6.64409 40.5982 7.23776 42.4217 8.12763C45.4125 9.50243 46.7961 11.1697 46.7961 13.3956C46.7648 17.4026 43.2278 19.9997 37.7574 19.9997C35.7774 20.0121 33.812 19.66 31.9594 18.9611ZM60.1842 19.7035C60.1842 19.7035 59.7105 17.4775 59.5592 16.8089H52.9227C52.704 17.3288 51.8291 19.7035 51.8291 19.7035H46.3999L54.095 1.96851C54.3113 1.4384 54.697 0.994822 55.192 0.707C55.6869 0.419178 56.2632 0.303312 56.8309 0.377486H60.8428L64.9997 19.7072L60.1842 19.7035ZM54.4562 12.8395H58.7956C58.5769 11.8746 57.592 7.23776 57.592 7.23776L57.2308 5.56799C56.9809 6.31039 56.5022 7.46022 56.5384 7.42273C56.5384 7.42273 54.8974 11.7259 54.4562 12.8395ZM23.5356 19.7035L26.7852 0.331242H31.9594L28.7099 19.7035H23.5356ZM11.0274 19.666L6.39684 2.85963C4.68801 1.91583 2.8609 1.20423 0.963867 0.743684L1.03636 0.336242H9.38766C9.9094 0.272901 10.4361 0.404485 10.8668 0.705737C11.2975 1.00699 11.6017 1.45668 11.7211 1.96851L13.5446 10.876L14.092 13.5469L19.1963 0.336242H24.703L16.5341 19.666H11.0274Z" fill="#876A3B"/>
</svg>
