<svg width="16" height="16" viewBox="0 0 16 16" fill="none" xmlns="http://www.w3.org/2000/svg">
<path d="M8.00033 13.5512L7.26449 12.8897C6.15938 11.8871 5.24549 11.0256 4.52283 10.3052C3.80016 9.58461 3.22749 8.94333 2.80483 8.38133C2.38216 7.81944 2.08688 7.30683 1.91899 6.8435C1.75099 6.38028 1.66699 5.91022 1.66699 5.43333C1.66699 4.48722 1.98599 3.69511 2.62399 3.057C3.2621 2.419 4.05421 2.1 5.00033 2.1C5.58233 2.1 6.13233 2.23611 6.65033 2.50833C7.16833 2.78055 7.61833 3.17094 8.00033 3.6795C8.38233 3.17094 8.83232 2.78055 9.35033 2.50833C9.86833 2.23611 10.4183 2.1 11.0003 2.1C11.9464 2.1 12.7385 2.419 13.3767 3.057C14.0147 3.69511 14.3337 4.48722 14.3337 5.43333C14.3337 5.91022 14.2497 6.38028 14.0817 6.8435C13.9138 7.30683 13.6185 7.81944 13.1958 8.38133C12.7732 8.94333 12.2015 9.58461 11.481 10.3052C10.7605 11.0256 9.8456 11.8871 8.73616 12.8897L8.00033 13.5512ZM8.00033 12.2C9.06699 11.2402 9.94477 10.4176 10.6337 9.732C11.3225 9.04655 11.867 8.45105 12.267 7.9455C12.667 7.43994 12.9448 6.991 13.1003 6.59866C13.2559 6.20644 13.3337 5.818 13.3337 5.43333C13.3337 4.76666 13.1114 4.21111 12.667 3.76666C12.2225 3.32222 11.667 3.1 11.0003 3.1C10.4739 3.1 9.98732 3.24933 9.54066 3.548C9.0941 3.84678 8.74049 4.26239 8.47983 4.79483H7.52083C7.25583 4.25805 6.9011 3.84139 6.45666 3.54483C6.01221 3.24828 5.52677 3.1 5.00033 3.1C4.33788 3.1 3.78338 3.32222 3.33683 3.76666C2.89027 4.21111 2.66699 4.76666 2.66699 5.43333C2.66699 5.818 2.74477 6.20644 2.90033 6.59866C3.05588 6.991 3.33366 7.43994 3.73366 7.9455C4.13366 8.45105 4.6781 9.0455 5.36699 9.72883C6.05588 10.4122 6.93366 11.2359 8.00033 12.2Z" fill="#876A3B"/>
</svg>
