<svg width="24" height="24" viewBox="0 0 24 24" fill="none" xmlns="http://www.w3.org/2000/svg">
<path d="M2.78809 19.6922V14.8077C2.78809 14.1089 3.03009 13.5176 3.51409 13.0337C3.99809 12.5497 4.58942 12.3077 5.28809 12.3077H6.49959V4.423H17.4996V12.3077H18.7111C19.4098 12.3077 20.0011 12.5497 20.4851 13.0337C20.9691 13.5176 21.2111 14.1089 21.2111 14.8077V19.6922H2.78809ZM7.99959 12.3077H15.9996V5.923H7.99959V12.3077ZM4.28809 18.1922H19.7111V14.8077C19.7111 14.5244 19.6153 14.2869 19.4236 14.0952C19.2319 13.9036 18.9944 13.8077 18.7111 13.8077H5.28809C5.00475 13.8077 4.76725 13.9036 4.57559 14.0952C4.38392 14.2869 4.28809 14.5244 4.28809 14.8077V18.1922ZM17.8073 16.6152C18.0907 16.6152 18.3282 16.5194 18.5198 16.3277C18.7115 16.1361 18.8073 15.8986 18.8073 15.6152C18.8073 15.3319 18.7115 15.0944 18.5198 14.9027C18.3282 14.7111 18.0907 14.6152 17.8073 14.6152C17.524 14.6152 17.2865 14.7111 17.0948 14.9027C16.9032 15.0944 16.8073 15.3319 16.8073 15.6152C16.8073 15.8986 16.9032 16.1361 17.0948 16.3277C17.2865 16.5194 17.524 16.6152 17.8073 16.6152Z" fill="#BA9252"/>
</svg>
